<svg xmlns="http://www.w3.org/2000/svg" xmlns:xlink="http://www.w3.org/1999/xlink" id="processonSvg1000" viewBox="297.0443611987382 63.79999923706055 822.9112776025236 437.9505740449629" width="822.9112776025236" height="437.9505740449629"><defs id="ProcessOnDefs1001"><marker id="ProcessOnMarker1044" markerUnits="userSpaceOnUse" orient="auto" markerWidth="16.23606797749979" markerHeight="10.550836550532098" viewBox="-1.0 -1.3763819204711736 16.23606797749979 10.550836550532098" refX="-1.0" refY="3.8990363547948754"><path id="ProcessOnPath1045" d="M12.0 3.8990363547948754L0.0 7.798072709589751V0.0Z" stroke="#323232" stroke-width="2.0" fill="#323232" transform="matrix(1.0,0.0,0.0,1.0,0.0,0.0)"/></marker><marker id="ProcessOnMarker1052" markerUnits="userSpaceOnUse" orient="auto" markerWidth="16.23606797749979" markerHeight="10.550836550532098" viewBox="-1.0 -1.3763819204711736 16.23606797749979 10.550836550532098" refX="-1.0" refY="3.8990363547948754"><path id="ProcessOnPath1053" d="M12.0 3.8990363547948754L0.0 7.798072709589751V0.0Z" stroke="#323232" stroke-width="2.0" fill="#323232" transform="matrix(1.0,0.0,0.0,1.0,0.0,0.0)"/></marker><marker id="ProcessOnMarker1060" markerUnits="userSpaceOnUse" orient="auto" markerWidth="16.23606797749979" markerHeight="10.550836550532098" viewBox="-1.0 -1.3763819204711736 16.23606797749979 10.550836550532098" refX="-1.0" refY="3.8990363547948754"><path id="ProcessOnPath1061" d="M12.0 3.8990363547948754L0.0 7.798072709589751V0.0Z" stroke="#323232" stroke-width="2.0" fill="#323232" transform="matrix(1.0,0.0,0.0,1.0,0.0,0.0)"/></marker><marker id="ProcessOnMarker1064" markerUnits="userSpaceOnUse" orient="auto" markerWidth="16.23606797749979" markerHeight="10.550836550532098" viewBox="-1.0 -1.3763819204711736 16.23606797749979 10.550836550532098" refX="-1.0" refY="3.8990363547948754"><path id="ProcessOnPath1065" d="M12.0 3.8990363547948754L0.0 7.798072709589751V0.0Z" stroke="#323232" stroke-width="2.0" fill="#323232" transform="matrix(1.0,0.0,0.0,1.0,0.0,0.0)"/></marker></defs><g id="ProcessOnG1002"><path id="ProcessOnPath1003" d="M297.0443611987382 63.79999923706055H1119.9556388012618V501.7505732820234H297.0443611987382V63.79999923706055Z" fill="none"/><g id="ProcessOnG1004"><g id="ProcessOnG1005" transform="matrix(1.0,0.0,0.0,1.0,352.24783123028396,240.9805351140845)" opacity="1.0"><path id="ProcessOnPath1006" d="M0.0 0.0L21.593059936908517 0.0L21.593059936908517 240.77003816793894L0.0 240.77003816793894Z" stroke="#990000" stroke-width="2.0" stroke-dasharray="none" opacity="1.0" fill="#ffffff"/></g><g id="ProcessOnG1007" transform="matrix(1.0,0.0,0.0,1.0,541.7269321766562,230.99007709881732)" opacity="1.0"><path id="ProcessOnPath1008" d="M0.0 0.0L21.593059936908503 0.0L21.593059936908503 55.20992366412213L0.0 55.20992366412213Z" stroke="#990000" stroke-width="2.0" stroke-dasharray="none" opacity="1.0" fill="#ffffff"/></g><g id="ProcessOnG1009" transform="matrix(1.0,0.0,0.0,1.0,317.0443611987382,83.79999923706055)" opacity="1.0"><path id="ProcessOnPath1010" d="M46.0 30.0L46.0 157.18053587702394" stroke="#323232" stroke-width="2.0" stroke-dasharray="2.0 3.0" opacity="1.0" fill="none"/><path id="ProcessOnPath1011" d="M0.0 0.0L92.0 0.0L92.0 30.0L0.0 30.0Z" stroke="#323232" stroke-width="2.0" stroke-dasharray="none" opacity="1.0" fill="#ffffff"/><g id="ProcessOnG1012" transform="matrix(1.0,0.0,0.0,1.0,10.0,6.875)"><text id="ProcessOnText1013" fill="#000000" font-size="13" x="35.0" y="13.325" font-family="微软雅黑" font-weight="normal" font-style="normal" text-decoration="none" family="微软雅黑" text-anchor="middle" size="13">UserAction</text></g></g><g id="ProcessOnG1014" transform="matrix(1.0,0.0,0.0,1.0,502.0073783946714,83.79999923706055)" opacity="1.0"><path id="ProcessOnPath1015" d="M50.51608375043901 30.0L50.51608375043901 150.19007786175678" stroke="#323232" stroke-width="2.0" stroke-dasharray="2.0 3.0" opacity="1.0" fill="none"/><path id="ProcessOnPath1016" d="M0.0 0.0L101.03216750087802 0.0L101.03216750087802 30.0L0.0 30.0Z" stroke="#323232" stroke-width="2.0" stroke-dasharray="none" opacity="1.0" fill="#ffffff"/><g id="ProcessOnG1017" transform="matrix(1.0,0.0,0.0,1.0,10.0,6.875)"><text id="ProcessOnText1018" fill="#000000" font-size="13" x="39.51608375043901" y="13.325" font-family="微软雅黑" font-weight="normal" font-style="normal" text-decoration="none" family="微软雅黑" text-anchor="middle" size="13">FileManage</text></g></g><g id="ProcessOnG1019" transform="matrix(1.0,0.0,0.0,1.0,689.7269321766562,270.9900770988173)" opacity="1.0"><path id="ProcessOnPath1020" d="M0.0 0.0L21.593059936908503 0.0L21.593059936908503 67.20992366412213L0.0 67.20992366412213Z" stroke="#990000" stroke-width="2.0" stroke-dasharray="none" opacity="1.0" fill="#ffffff"/></g><g id="ProcessOnG1021" transform="matrix(1.0,0.0,0.0,1.0,650.9556388012618,83.79999923706055)" opacity="1.0"><path id="ProcessOnPath1022" d="M50.774125625658485 30.0L50.774125625658485 187.19007786175678" stroke="#323232" stroke-width="2.0" stroke-dasharray="2.0 3.0" opacity="1.0" fill="none"/><path id="ProcessOnPath1023" d="M0.0 0.0L101.54825125131697 0.0L101.54825125131697 30.0L0.0 30.0Z" stroke="#323232" stroke-width="2.0" stroke-dasharray="none" opacity="1.0" fill="#ffffff"/><g id="ProcessOnG1024" transform="matrix(1.0,0.0,0.0,1.0,10.0,6.875)"><text id="ProcessOnText1025" fill="#000000" font-size="13" x="39.774125625658485" y="13.325" font-family="微软雅黑" font-weight="normal" font-style="normal" text-decoration="none" family="微软雅黑" text-anchor="middle" size="13">RunAction</text></g></g><g id="ProcessOnG1026" transform="matrix(1.0,0.0,0.0,1.0,815.7493365194518,83.79999923706055)" opacity="1.0"><path id="ProcessOnPath1027" d="M44.97759565720423 30.0L44.97759565720423 263.4000015258789" stroke="#323232" stroke-width="2.0" stroke-dasharray="2.0 3.0" opacity="1.0" fill="none"/><path id="ProcessOnPath1028" d="M0.0 0.0L89.95519131440847 0.0L89.95519131440847 30.0L0.0 30.0Z" stroke="#323232" stroke-width="2.0" stroke-dasharray="none" opacity="1.0" fill="#ffffff"/><g id="ProcessOnG1029" transform="matrix(1.0,0.0,0.0,1.0,10.0,6.875)"><text id="ProcessOnText1030" fill="#000000" font-size="13" x="33.97759565720423" y="13.325" font-family="微软雅黑" font-weight="normal" font-style="normal" text-decoration="none" family="微软雅黑" text-anchor="middle" size="13">GraphViz</text></g></g><g id="ProcessOnG1031" transform="matrix(1.0,0.0,0.0,1.0,850.7269321766562,344.9900770988173)" opacity="1.0"><path id="ProcessOnPath1032" d="M0.0 0.0L20.0 0.0L20.0 74.20992366412213L0.0 74.20992366412213Z" stroke="#990000" stroke-width="2.0" stroke-dasharray="none" opacity="1.0" fill="#ffffff"/></g><g id="ProcessOnG1033" transform="matrix(1.0,0.0,0.0,1.0,992.7493365194518,83.79999923706055)" opacity="1.0"><path id="ProcessOnPath1034" d="M53.60315114090497 30.0L53.60315114090497 324.4000015258789" stroke="#323232" stroke-width="2.0" stroke-dasharray="2.0 3.0" opacity="1.0" fill="none"/><path id="ProcessOnPath1035" d="M0.0 0.0L107.20630228180994 0.0L107.20630228180994 30.0L0.0 30.0Z" stroke="#323232" stroke-width="2.0" stroke-dasharray="none" opacity="1.0" fill="#ffffff"/><g id="ProcessOnG1036" transform="matrix(1.0,0.0,0.0,1.0,10.0,6.875)"><text id="ProcessOnText1037" fill="#000000" font-size="13" x="42.60315114090497" y="13.325" font-family="微软雅黑" font-weight="normal" font-style="normal" text-decoration="none" family="微软雅黑" text-anchor="middle" size="13">Graph</text></g></g><g id="ProcessOnG1038" transform="matrix(1.0,0.0,0.0,1.0,1036.352487660357,213.20000076293945)" opacity="1.0"><path id="ProcessOnPath1039" d="M0.0 0.0L20.0 0.0L20.0 260.70515267175574L0.0 260.70515267175574Z" stroke="#990000" stroke-width="2.0" stroke-dasharray="none" opacity="1.0" fill="#ffffff"/></g><g id="ProcessOnG1040" transform="matrix(1.0,0.0,0.0,1.0,421.95563880126184,203.20000076293945)" opacity="1.0"><path id="ProcessOnPath1041" d="M0.0 0.0L64.0 0.0L64.0 23.0L0.0 23.0Z" stroke="none" stroke-width="0.0" stroke-dasharray="none" opacity="1.0" fill="none"/></g><g id="ProcessOnG1042"><path id="ProcessOnPath1043" d="M373.0 285.0L527.0 285.0L527.0 285.0L665.7639320225002 285.0" stroke="#323232" stroke-width="2.0" stroke-dasharray="none" fill="none" marker-end="url(#ProcessOnMarker1044)"/></g><g id="ProcessOnG1046" transform="matrix(1.0,0.0,0.0,1.0,406.59999084472656,297.0)" opacity="1.0"><path id="ProcessOnPath1047" d="M0.0 0.0L208.40000915527344 0.0L208.40000915527344 20.0L0.0 20.0Z" stroke="none" stroke-width="0.0" stroke-dasharray="none" opacity="1.0" fill="none"/><g id="ProcessOnG1048" transform="matrix(1.0,0.0,0.0,1.0,0.0,1.875)"><text id="ProcessOnText1049" fill="#000000" font-size="13" x="103.20000457763672" y="13.325" font-family="微软雅黑" font-weight="normal" font-style="normal" text-decoration="none" family="微软雅黑" text-anchor="middle" size="13">generateNewText(String input)</text></g></g><g id="ProcessOnG1050"><path id="ProcessOnPath1051" d="M711.0 286.0L869.5 286.0L869.5 286.0L1012.7639320225002 286.0" stroke="#323232" stroke-width="2.0" stroke-dasharray="none" fill="none" marker-end="url(#ProcessOnMarker1052)"/></g><g id="ProcessOnG1054" transform="matrix(1.0,0.0,0.0,1.0,794.0,250.0)" opacity="1.0"><path id="ProcessOnPath1055" d="M0.0 0.0L161.0 0.0L161.0 28.0L0.0 28.0Z" stroke="none" stroke-width="0.0" stroke-dasharray="none" opacity="1.0" fill="none"/><g id="ProcessOnG1056" transform="matrix(1.0,0.0,0.0,1.0,0.0,5.875)"><text id="ProcessOnText1057" fill="#000000" font-size="13" x="79.5" y="13.325" font-family="微软雅黑" font-weight="normal" font-style="normal" text-decoration="none" family="微软雅黑" text-anchor="middle" size="13">多次查询</text></g></g><g id="ProcessOnG1058"><path id="ProcessOnPath1059" d="M1037.0 325.0L874.0 325.0L874.0 325.0L726.2360679774998 325.0" stroke="#323232" stroke-width="2.0" stroke-dasharray="2.0 3.0" fill="none" marker-end="url(#ProcessOnMarker1060)"/></g><g id="ProcessOnG1062"><path id="ProcessOnPath1063" d="M689.9396926207859 332.65797985667433L531.469846310393 332.65797985667433L531.469846310393 333.0L388.2360679774998 333.0" stroke="#323232" stroke-width="2.0" stroke-dasharray="none" fill="none" marker-end="url(#ProcessOnMarker1064)"/></g><g id="ProcessOnG1066" transform="matrix(1.0,0.0,0.0,1.0,440.0,344.9900770988173)" opacity="1.0"><path id="ProcessOnPath1067" d="M0.0 0.0L188.0 0.0L188.0 38.0L0.0 38.0Z" stroke="none" stroke-width="0.0" stroke-dasharray="none" opacity="1.0" fill="none"/><g id="ProcessOnG1068" transform="matrix(1.0,0.0,0.0,1.0,0.0,10.875)"><text id="ProcessOnText1069" fill="#000000" font-size="13" x="93.0" y="13.325" font-family="微软雅黑" font-weight="normal" font-style="normal" text-decoration="none" family="微软雅黑" text-anchor="middle" size="13">String result</text></g></g></g></g></svg>